<?xml version="1.0" encoding="utf-8"?>
<!-- Generator: Adobe Illustrator 22.0.0, SVG Export Plug-In . SVG Version: 6.00 Build 0)  -->
<svg version="1.1" id="Layer_1" xmlns="http://www.w3.org/2000/svg" xmlns:xlink="http://www.w3.org/1999/xlink" x="0px" y="0px"
	 viewBox="0 0 154 94" style="enable-background:new 0 0 154 94;" xml:space="preserve">
<style type="text/css">
	.st0{fill:url(#SVGID_1_);}
</style>
<linearGradient id="SVGID_1_" gradientUnits="userSpaceOnUse" x1="76.5143" y1="95.9595" x2="76.5143" y2="2.5669" gradientTransform="matrix(1 0 0 -1 0 96)">
	<stop  offset="0" style="stop-color:#FFB7CA"/>
	<stop  offset="1" style="stop-color:#9B49D1;stop-opacity:0"/>
</linearGradient>
<path class="st0" d="M129.4,12c-0.2,7.5,5.1,11,5.1,11s5.6-4.1,5.7-11.3c0.2-7.3-5.9-11.6-5.9-11.6S129.6,4.5,129.4,12z M119.4,29.7
	c2.2,6.9,8.6,9.2,8.6,9.2s4.1-4.9,1.9-12c-2.3-7.1-8-10-8-10S117.2,22.8,119.4,29.7z M141.3,26.2c-4.3,6.1-1.8,12-1.8,12
	s6.8-0.3,11-6.3c4.2-6,1.5-12.9,1.5-12.9S145.5,20.1,141.3,26.2z M125.3,46.6c1.3,7.4-3.4,11.7-3.4,11.7s-6.1-3.1-7.4-10.3
	c-1.3-7.2,4.1-12.4,4.1-12.4S124,39.3,125.3,46.6z M114.6,59.5C114,52,109,47.9,109,47.9s-5.8,4.7-5.2,11.9c0.6,7.3,6.4,11,6.4,11
	S115.2,66.9,114.6,59.5z M94.7,82.4c0,0-4.5-5.2-3-12.3c1.5-7.1,8.5-9.9,8.5-9.9s3.6,5.4,2,12.7C100.6,80.1,94.7,82.4,94.7,82.4z
	 M135.5,53.2c0,0-0.6-6.4,5.2-11c5.9-4.6,12.3-3.7,12.3-3.7s0.5,7.5-5.2,12C142.1,54.9,135.5,53.2,135.5,53.2z M134.1,57.6
	c-6.7,3.2-7.5,9.5-7.5,9.5s6.1,3.2,12.6,0.1c6.6-3.1,7.7-10.5,7.7-10.5S140.8,54.5,134.1,57.6z M115.8,77.8c0,0,2.7-5.8,10.1-6.8
	c7.4-1,12.4,3,12.4,3s-3.3,6.7-10.5,7.7C120.6,82.7,115.8,77.8,115.8,77.8z M123.2,86.8c0,0-4.6-4.6-12-4.5
	c-7.4,0.1-10.8,5.5-10.8,5.5s4.2,5.4,11.4,5.3C119.1,93,123.2,86.8,123.2,86.8z M132.7,26.9l3.5-0.7c0.1,0.4,6.8,38.4-47.8,64.7
	l-1.5-3.2C138.9,62.7,133,28.4,132.7,26.9z M11.8,26.5c4.3,6.1,1.8,12,1.8,12s-6.8-0.3-11-6.3c-4.2-6-1.5-12.9-1.5-12.9
	S7.5,20.4,11.8,26.5z M25,39.3c0,0,6.5-2.3,8.6-9.2c2.2-6.9-2.5-12.8-2.5-12.8s-5.8,2.9-8,10C20.8,34.3,25,39.3,25,39.3z M31.1,58.6
	c0,0-4.7-4.3-3.4-11.7c1.3-7.4,6.7-11,6.7-11s5.4,5.2,4.1,12.4C37.2,55.5,31.1,58.6,31.1,58.6z M44,48.2c0,0-5,4.1-5.6,11.6
	c-0.6,7.4,4.5,11.3,4.5,11.3s5.8-3.7,6.4-11C49.9,52.8,44,48.2,44,48.2z M61.3,70.3c1.5,7.1-3,12.3-3,12.3s-6-2.2-7.5-9.5
	c-1.6-7.3,2-12.7,2-12.7S59.8,63.2,61.3,70.3z M18.5,23.2c0,0,5.3-3.5,5.1-11c-0.2-7.5-4.9-11.9-4.9-11.9s-6.1,4.3-5.9,11.6
	C12.9,19.2,18.5,23.2,18.5,23.2z M12.3,42.5c5.9,4.6,5.2,11,5.2,11s-6.6,1.8-12.3-2.7c-5.7-4.5-5.2-12-5.2-12S6.4,37.9,12.3,42.5z
	 M26.5,67.5c0,0-0.8-6.4-7.5-9.5c-6.7-3.2-12.8-0.9-12.8-0.9s1.1,7.4,7.7,10.5C20.4,70.7,26.5,67.5,26.5,67.5z M27.2,71.3
	c7.4,1,10.1,6.8,10.1,6.8s-4.8,4.9-12,3.9c-7.2-1-10.5-7.7-10.5-7.7S19.8,70.4,27.2,71.3z M41.9,82.5c-7.4-0.1-12,4.5-12,4.5
	s4.1,6.3,11.3,6.4c7.2,0.1,11.4-5.3,11.4-5.3S49.3,82.6,41.9,82.5z M16.8,26.5l3.5,0.7C20,28.7,14.1,63,66.2,88l-1.5,3.2
	C10,64.9,16.7,26.9,16.8,26.5z"/>
</svg>
